<svg width="242" height="93" viewBox="0 0 242 93" fill="none" xmlns="http://www.w3.org/2000/svg">
    <path
        d="M28.6162 33.0864H65.0358V41.889H49.6357V42.3691L65.0358 54.4082V64.7757L48.7821 51.8653L28.6162 65.0069V54.4794L42.9315 45.41L38.4858 41.889H28.6162V33.0864Z"
        fill="#5F6368" />
    <path
        d="M90 46.5C90 70.5244 70.5244 90 46.5 90C22.4756 90 3 70.5244 3 46.5C3 22.4756 22.4756 3 46.5 3C70.5244 3 90 22.4756 90 46.5Z"
        stroke="#5F6368" stroke-width="6" />
    <path
        d="M133.67 31.96L118.685 47.08V31.96H112.61V64H118.685V53.965L123.725 49.06L133.985 64H141.23L128.045 45.01L141.23 31.96H133.67ZM157.321 40.42C153.991 40.42 151.651 41.95 150.391 44.92V40.78H144.901V64H150.571V52.21C150.571 50.095 151.111 48.475 152.281 47.395C153.451 46.315 155.116 45.73 157.276 45.73H158.716V40.51C158.266 40.465 157.816 40.42 157.321 40.42ZM181.871 61.21C184.031 59.005 185.111 56.08 185.111 52.39C185.111 48.7 184.031 45.73 181.871 43.525C179.711 41.365 176.831 40.24 173.321 40.24C169.766 40.24 166.931 41.365 164.771 43.57C162.566 45.775 161.486 48.7 161.486 52.39C161.486 56.08 162.566 59.05 164.771 61.21C166.931 63.46 169.766 64.54 173.321 64.54C176.831 64.54 179.711 63.46 181.871 61.21ZM173.321 59.86C171.431 59.86 169.946 59.23 168.866 57.925C167.786 56.665 167.291 54.82 167.291 52.39C167.291 50.005 167.786 48.16 168.866 46.855C169.946 45.595 171.431 44.92 173.321 44.92C175.211 44.92 176.651 45.595 177.731 46.9C178.811 48.205 179.351 50.05 179.351 52.39C179.351 54.775 178.811 56.62 177.731 57.925C176.651 59.23 175.211 59.86 173.321 59.86ZM203.203 40.24C200.143 40.24 197.713 41.545 195.958 44.11V40.78H190.468V64H196.138V50.995C196.138 49.195 196.633 47.755 197.623 46.72C198.613 45.685 199.873 45.145 201.313 45.145C204.193 45.145 205.678 46.63 205.678 49.555V64H211.348V48.61C211.348 45.955 210.583 43.885 209.143 42.445C207.703 41.005 205.723 40.24 203.203 40.24ZM237.107 61.21C239.267 59.005 240.347 56.08 240.347 52.39C240.347 48.7 239.267 45.73 237.107 43.525C234.947 41.365 232.067 40.24 228.557 40.24C225.002 40.24 222.167 41.365 220.007 43.57C217.802 45.775 216.722 48.7 216.722 52.39C216.722 56.08 217.802 59.05 220.007 61.21C222.167 63.46 225.002 64.54 228.557 64.54C232.067 64.54 234.947 63.46 237.107 61.21ZM228.557 59.86C226.667 59.86 225.182 59.23 224.102 57.925C223.022 56.665 222.527 54.82 222.527 52.39C222.527 50.005 223.022 48.16 224.102 46.855C225.182 45.595 226.667 44.92 228.557 44.92C230.447 44.92 231.887 45.595 232.967 46.9C234.047 48.205 234.587 50.05 234.587 52.39C234.587 54.775 234.047 56.62 232.967 57.925C231.887 59.23 230.447 59.86 228.557 59.86Z"
        fill="#5F6368" />
</svg>